<mxfile host="app.diagrams.net" modified="2024-05-23T19:52:29.845Z" agent="Mozilla/5.0 (Windows NT 10.0; Win64; x64) AppleWebKit/537.36 (KHTML, like Gecko) Chrome/125.0.0.0 Safari/537.36 Edg/125.0.0.0" etag="HacwVzwgM3WazTuwLq-_" version="24.4.6" type="device">
  <diagram name="Page-1" id="qzrzoVrA-5kQio3AkhJz">
    <mxGraphModel dx="1179" dy="669" grid="1" gridSize="10" guides="1" tooltips="1" connect="1" arrows="1" fold="1" page="1" pageScale="1" pageWidth="850" pageHeight="1100" math="0" shadow="0">
      <root>
        <mxCell id="0" />
        <mxCell id="1" parent="0" />
        <mxCell id="GNTwWP3GNRVE5K6_vVec-1" value="Produkt" style="swimlane;fontStyle=1;align=center;verticalAlign=top;childLayout=stackLayout;horizontal=1;startSize=26;horizontalStack=0;resizeParent=1;resizeParentMax=0;resizeLast=0;collapsible=1;marginBottom=0;whiteSpace=wrap;html=1;" vertex="1" parent="1">
          <mxGeometry x="70" y="310" width="160" height="242" as="geometry" />
        </mxCell>
        <mxCell id="GNTwWP3GNRVE5K6_vVec-2" value="+ ID: int" style="text;strokeColor=none;fillColor=none;align=left;verticalAlign=top;spacingLeft=4;spacingRight=4;overflow=hidden;rotatable=0;points=[[0,0.5],[1,0.5]];portConstraint=eastwest;whiteSpace=wrap;html=1;" vertex="1" parent="GNTwWP3GNRVE5K6_vVec-1">
          <mxGeometry y="26" width="160" height="26" as="geometry" />
        </mxCell>
        <mxCell id="GNTwWP3GNRVE5K6_vVec-5" value="+ Nazwa" style="text;strokeColor=none;fillColor=none;align=left;verticalAlign=top;spacingLeft=4;spacingRight=4;overflow=hidden;rotatable=0;points=[[0,0.5],[1,0.5]];portConstraint=eastwest;whiteSpace=wrap;html=1;" vertex="1" parent="GNTwWP3GNRVE5K6_vVec-1">
          <mxGeometry y="52" width="160" height="26" as="geometry" />
        </mxCell>
        <mxCell id="GNTwWP3GNRVE5K6_vVec-7" value="+ Opis" style="text;strokeColor=none;fillColor=none;align=left;verticalAlign=top;spacingLeft=4;spacingRight=4;overflow=hidden;rotatable=0;points=[[0,0.5],[1,0.5]];portConstraint=eastwest;whiteSpace=wrap;html=1;" vertex="1" parent="GNTwWP3GNRVE5K6_vVec-1">
          <mxGeometry y="78" width="160" height="26" as="geometry" />
        </mxCell>
        <mxCell id="GNTwWP3GNRVE5K6_vVec-8" value="+ Kategoria" style="text;strokeColor=none;fillColor=none;align=left;verticalAlign=top;spacingLeft=4;spacingRight=4;overflow=hidden;rotatable=0;points=[[0,0.5],[1,0.5]];portConstraint=eastwest;whiteSpace=wrap;html=1;" vertex="1" parent="GNTwWP3GNRVE5K6_vVec-1">
          <mxGeometry y="104" width="160" height="26" as="geometry" />
        </mxCell>
        <mxCell id="GNTwWP3GNRVE5K6_vVec-25" value="+ Cena jednostkowa" style="text;strokeColor=none;fillColor=none;align=left;verticalAlign=top;spacingLeft=4;spacingRight=4;overflow=hidden;rotatable=0;points=[[0,0.5],[1,0.5]];portConstraint=eastwest;whiteSpace=wrap;html=1;" vertex="1" parent="GNTwWP3GNRVE5K6_vVec-1">
          <mxGeometry y="130" width="160" height="26" as="geometry" />
        </mxCell>
        <mxCell id="GNTwWP3GNRVE5K6_vVec-9" value="+ Stan magazynowy" style="text;strokeColor=none;fillColor=none;align=left;verticalAlign=top;spacingLeft=4;spacingRight=4;overflow=hidden;rotatable=0;points=[[0,0.5],[1,0.5]];portConstraint=eastwest;whiteSpace=wrap;html=1;" vertex="1" parent="GNTwWP3GNRVE5K6_vVec-1">
          <mxGeometry y="156" width="160" height="26" as="geometry" />
        </mxCell>
        <mxCell id="GNTwWP3GNRVE5K6_vVec-10" value="+ Data dodania" style="text;strokeColor=none;fillColor=none;align=left;verticalAlign=top;spacingLeft=4;spacingRight=4;overflow=hidden;rotatable=0;points=[[0,0.5],[1,0.5]];portConstraint=eastwest;whiteSpace=wrap;html=1;" vertex="1" parent="GNTwWP3GNRVE5K6_vVec-1">
          <mxGeometry y="182" width="160" height="26" as="geometry" />
        </mxCell>
        <mxCell id="GNTwWP3GNRVE5K6_vVec-3" value="" style="line;strokeWidth=1;fillColor=none;align=left;verticalAlign=middle;spacingTop=-1;spacingLeft=3;spacingRight=3;rotatable=0;labelPosition=right;points=[];portConstraint=eastwest;strokeColor=inherit;" vertex="1" parent="GNTwWP3GNRVE5K6_vVec-1">
          <mxGeometry y="208" width="160" height="8" as="geometry" />
        </mxCell>
        <mxCell id="GNTwWP3GNRVE5K6_vVec-4" value="+ GetAll(): list&amp;lt;Produkt&amp;gt;" style="text;strokeColor=none;fillColor=none;align=left;verticalAlign=top;spacingLeft=4;spacingRight=4;overflow=hidden;rotatable=0;points=[[0,0.5],[1,0.5]];portConstraint=eastwest;whiteSpace=wrap;html=1;" vertex="1" parent="GNTwWP3GNRVE5K6_vVec-1">
          <mxGeometry y="216" width="160" height="26" as="geometry" />
        </mxCell>
        <mxCell id="GNTwWP3GNRVE5K6_vVec-12" value="ZamÃ³wienie" style="swimlane;fontStyle=1;align=center;verticalAlign=top;childLayout=stackLayout;horizontal=1;startSize=26;horizontalStack=0;resizeParent=1;resizeParentMax=0;resizeLast=0;collapsible=1;marginBottom=0;whiteSpace=wrap;html=1;" vertex="1" parent="1">
          <mxGeometry x="520" y="300" width="160" height="190" as="geometry" />
        </mxCell>
        <mxCell id="GNTwWP3GNRVE5K6_vVec-13" value="+ ID: int" style="text;strokeColor=none;fillColor=none;align=left;verticalAlign=top;spacingLeft=4;spacingRight=4;overflow=hidden;rotatable=0;points=[[0,0.5],[1,0.5]];portConstraint=eastwest;whiteSpace=wrap;html=1;" vertex="1" parent="GNTwWP3GNRVE5K6_vVec-12">
          <mxGeometry y="26" width="160" height="26" as="geometry" />
        </mxCell>
        <mxCell id="GNTwWP3GNRVE5K6_vVec-16" value="+ ID klienta" style="text;strokeColor=none;fillColor=none;align=left;verticalAlign=top;spacingLeft=4;spacingRight=4;overflow=hidden;rotatable=0;points=[[0,0.5],[1,0.5]];portConstraint=eastwest;whiteSpace=wrap;html=1;" vertex="1" parent="GNTwWP3GNRVE5K6_vVec-12">
          <mxGeometry y="52" width="160" height="26" as="geometry" />
        </mxCell>
        <mxCell id="GNTwWP3GNRVE5K6_vVec-46" value="+ ID produktu" style="text;strokeColor=none;fillColor=none;align=left;verticalAlign=top;spacingLeft=4;spacingRight=4;overflow=hidden;rotatable=0;points=[[0,0.5],[1,0.5]];portConstraint=eastwest;whiteSpace=wrap;html=1;" vertex="1" parent="GNTwWP3GNRVE5K6_vVec-12">
          <mxGeometry y="78" width="160" height="26" as="geometry" />
        </mxCell>
        <mxCell id="GNTwWP3GNRVE5K6_vVec-17" value="+ Wartosc zamowienia" style="text;strokeColor=none;fillColor=none;align=left;verticalAlign=top;spacingLeft=4;spacingRight=4;overflow=hidden;rotatable=0;points=[[0,0.5],[1,0.5]];portConstraint=eastwest;whiteSpace=wrap;html=1;" vertex="1" parent="GNTwWP3GNRVE5K6_vVec-12">
          <mxGeometry y="104" width="160" height="26" as="geometry" />
        </mxCell>
        <mxCell id="GNTwWP3GNRVE5K6_vVec-15" value="+ Status" style="text;strokeColor=none;fillColor=none;align=left;verticalAlign=top;spacingLeft=4;spacingRight=4;overflow=hidden;rotatable=0;points=[[0,0.5],[1,0.5]];portConstraint=eastwest;whiteSpace=wrap;html=1;" vertex="1" parent="GNTwWP3GNRVE5K6_vVec-12">
          <mxGeometry y="130" width="160" height="26" as="geometry" />
        </mxCell>
        <mxCell id="GNTwWP3GNRVE5K6_vVec-18" value="+ Data dodania" style="text;strokeColor=none;fillColor=none;align=left;verticalAlign=top;spacingLeft=4;spacingRight=4;overflow=hidden;rotatable=0;points=[[0,0.5],[1,0.5]];portConstraint=eastwest;whiteSpace=wrap;html=1;" vertex="1" parent="GNTwWP3GNRVE5K6_vVec-12">
          <mxGeometry y="156" width="160" height="26" as="geometry" />
        </mxCell>
        <mxCell id="GNTwWP3GNRVE5K6_vVec-19" value="" style="line;strokeWidth=1;fillColor=none;align=left;verticalAlign=middle;spacingTop=-1;spacingLeft=3;spacingRight=3;rotatable=0;labelPosition=right;points=[];portConstraint=eastwest;strokeColor=inherit;" vertex="1" parent="GNTwWP3GNRVE5K6_vVec-12">
          <mxGeometry y="182" width="160" height="8" as="geometry" />
        </mxCell>
        <mxCell id="GNTwWP3GNRVE5K6_vVec-22" value="" style="endArrow=open;html=1;endSize=12;startArrow=diamondThin;startSize=14;startFill=0;edgeStyle=orthogonalEdgeStyle;rounded=0;entryX=1;entryY=0.5;entryDx=0;entryDy=0;exitX=0;exitY=0.5;exitDx=0;exitDy=0;" edge="1" parent="1" source="GNTwWP3GNRVE5K6_vVec-46" target="GNTwWP3GNRVE5K6_vVec-2">
          <mxGeometry x="0.5" y="-110" relative="1" as="geometry">
            <mxPoint x="470" y="380" as="sourcePoint" />
            <mxPoint x="610" y="470" as="targetPoint" />
            <Array as="points">
              <mxPoint x="460" y="391" />
              <mxPoint x="460" y="349" />
            </Array>
            <mxPoint as="offset" />
          </mxGeometry>
        </mxCell>
        <mxCell id="GNTwWP3GNRVE5K6_vVec-23" value="*" style="edgeLabel;resizable=0;html=1;align=left;verticalAlign=top;" connectable="0" vertex="1" parent="GNTwWP3GNRVE5K6_vVec-22">
          <mxGeometry x="-1" relative="1" as="geometry">
            <mxPoint x="10" y="10" as="offset" />
          </mxGeometry>
        </mxCell>
        <mxCell id="GNTwWP3GNRVE5K6_vVec-24" value="1" style="edgeLabel;resizable=0;html=1;align=right;verticalAlign=top;" connectable="0" vertex="1" parent="GNTwWP3GNRVE5K6_vVec-22">
          <mxGeometry x="1" relative="1" as="geometry">
            <mxPoint x="21" y="1" as="offset" />
          </mxGeometry>
        </mxCell>
        <mxCell id="GNTwWP3GNRVE5K6_vVec-41" value="*" style="edgeLabel;html=1;align=center;verticalAlign=middle;resizable=0;points=[];" vertex="1" connectable="0" parent="GNTwWP3GNRVE5K6_vVec-22">
          <mxGeometry x="-0.9296" y="1" relative="1" as="geometry">
            <mxPoint x="-10" y="9" as="offset" />
          </mxGeometry>
        </mxCell>
        <mxCell id="GNTwWP3GNRVE5K6_vVec-26" value="Klient" style="swimlane;fontStyle=1;align=center;verticalAlign=top;childLayout=stackLayout;horizontal=1;startSize=26;horizontalStack=0;resizeParent=1;resizeParentMax=0;resizeLast=0;collapsible=1;marginBottom=0;whiteSpace=wrap;html=1;" vertex="1" parent="1">
          <mxGeometry x="740" y="70" width="160" height="164" as="geometry" />
        </mxCell>
        <mxCell id="GNTwWP3GNRVE5K6_vVec-27" value="+ ID: int" style="text;strokeColor=none;fillColor=none;align=left;verticalAlign=top;spacingLeft=4;spacingRight=4;overflow=hidden;rotatable=0;points=[[0,0.5],[1,0.5]];portConstraint=eastwest;whiteSpace=wrap;html=1;" vertex="1" parent="GNTwWP3GNRVE5K6_vVec-26">
          <mxGeometry y="26" width="160" height="26" as="geometry" />
        </mxCell>
        <mxCell id="GNTwWP3GNRVE5K6_vVec-28" value="+ Imie" style="text;strokeColor=none;fillColor=none;align=left;verticalAlign=top;spacingLeft=4;spacingRight=4;overflow=hidden;rotatable=0;points=[[0,0.5],[1,0.5]];portConstraint=eastwest;whiteSpace=wrap;html=1;" vertex="1" parent="GNTwWP3GNRVE5K6_vVec-26">
          <mxGeometry y="52" width="160" height="26" as="geometry" />
        </mxCell>
        <mxCell id="GNTwWP3GNRVE5K6_vVec-29" value="+ Nazwisko" style="text;strokeColor=none;fillColor=none;align=left;verticalAlign=top;spacingLeft=4;spacingRight=4;overflow=hidden;rotatable=0;points=[[0,0.5],[1,0.5]];portConstraint=eastwest;whiteSpace=wrap;html=1;" vertex="1" parent="GNTwWP3GNRVE5K6_vVec-26">
          <mxGeometry y="78" width="160" height="26" as="geometry" />
        </mxCell>
        <mxCell id="GNTwWP3GNRVE5K6_vVec-30" value="+ Email" style="text;strokeColor=none;fillColor=none;align=left;verticalAlign=top;spacingLeft=4;spacingRight=4;overflow=hidden;rotatable=0;points=[[0,0.5],[1,0.5]];portConstraint=eastwest;whiteSpace=wrap;html=1;" vertex="1" parent="GNTwWP3GNRVE5K6_vVec-26">
          <mxGeometry y="104" width="160" height="26" as="geometry" />
        </mxCell>
        <mxCell id="GNTwWP3GNRVE5K6_vVec-31" value="+ Telefon" style="text;strokeColor=none;fillColor=none;align=left;verticalAlign=top;spacingLeft=4;spacingRight=4;overflow=hidden;rotatable=0;points=[[0,0.5],[1,0.5]];portConstraint=eastwest;whiteSpace=wrap;html=1;" vertex="1" parent="GNTwWP3GNRVE5K6_vVec-26">
          <mxGeometry y="130" width="160" height="26" as="geometry" />
        </mxCell>
        <mxCell id="GNTwWP3GNRVE5K6_vVec-33" value="" style="line;strokeWidth=1;fillColor=none;align=left;verticalAlign=middle;spacingTop=-1;spacingLeft=3;spacingRight=3;rotatable=0;labelPosition=right;points=[];portConstraint=eastwest;strokeColor=inherit;" vertex="1" parent="GNTwWP3GNRVE5K6_vVec-26">
          <mxGeometry y="156" width="160" height="8" as="geometry" />
        </mxCell>
        <mxCell id="GNTwWP3GNRVE5K6_vVec-34" value="Koszyk" style="swimlane;fontStyle=1;align=center;verticalAlign=top;childLayout=stackLayout;horizontal=1;startSize=26;horizontalStack=0;resizeParent=1;resizeParentMax=0;resizeLast=0;collapsible=1;marginBottom=0;whiteSpace=wrap;html=1;" vertex="1" parent="1">
          <mxGeometry x="310" y="130" width="160" height="112" as="geometry" />
        </mxCell>
        <mxCell id="GNTwWP3GNRVE5K6_vVec-35" value="+ ID: int" style="text;strokeColor=none;fillColor=none;align=left;verticalAlign=top;spacingLeft=4;spacingRight=4;overflow=hidden;rotatable=0;points=[[0,0.5],[1,0.5]];portConstraint=eastwest;whiteSpace=wrap;html=1;" vertex="1" parent="GNTwWP3GNRVE5K6_vVec-34">
          <mxGeometry y="26" width="160" height="26" as="geometry" />
        </mxCell>
        <mxCell id="GNTwWP3GNRVE5K6_vVec-36" value="+ ID zamowienie" style="text;strokeColor=none;fillColor=none;align=left;verticalAlign=top;spacingLeft=4;spacingRight=4;overflow=hidden;rotatable=0;points=[[0,0.5],[1,0.5]];portConstraint=eastwest;whiteSpace=wrap;html=1;" vertex="1" parent="GNTwWP3GNRVE5K6_vVec-34">
          <mxGeometry y="52" width="160" height="26" as="geometry" />
        </mxCell>
        <mxCell id="GNTwWP3GNRVE5K6_vVec-38" value="+ Status" style="text;strokeColor=none;fillColor=none;align=left;verticalAlign=top;spacingLeft=4;spacingRight=4;overflow=hidden;rotatable=0;points=[[0,0.5],[1,0.5]];portConstraint=eastwest;whiteSpace=wrap;html=1;" vertex="1" parent="GNTwWP3GNRVE5K6_vVec-34">
          <mxGeometry y="78" width="160" height="26" as="geometry" />
        </mxCell>
        <mxCell id="GNTwWP3GNRVE5K6_vVec-40" value="" style="line;strokeWidth=1;fillColor=none;align=left;verticalAlign=middle;spacingTop=-1;spacingLeft=3;spacingRight=3;rotatable=0;labelPosition=right;points=[];portConstraint=eastwest;strokeColor=inherit;" vertex="1" parent="GNTwWP3GNRVE5K6_vVec-34">
          <mxGeometry y="104" width="160" height="8" as="geometry" />
        </mxCell>
        <mxCell id="GNTwWP3GNRVE5K6_vVec-42" value="" style="endArrow=open;html=1;endSize=12;startArrow=diamondThin;startSize=14;startFill=0;edgeStyle=orthogonalEdgeStyle;rounded=0;entryX=0.996;entryY=0.692;entryDx=0;entryDy=0;entryPerimeter=0;exitX=0;exitY=0.5;exitDx=0;exitDy=0;" edge="1" parent="1" source="GNTwWP3GNRVE5K6_vVec-27" target="GNTwWP3GNRVE5K6_vVec-16">
          <mxGeometry x="0.5" y="-110" relative="1" as="geometry">
            <mxPoint x="710" y="90" as="sourcePoint" />
            <mxPoint x="720" y="370" as="targetPoint" />
            <Array as="points">
              <mxPoint x="710" y="109" />
              <mxPoint x="710" y="370" />
            </Array>
            <mxPoint as="offset" />
          </mxGeometry>
        </mxCell>
        <mxCell id="GNTwWP3GNRVE5K6_vVec-44" value="1" style="edgeLabel;resizable=0;html=1;align=right;verticalAlign=top;" connectable="0" vertex="1" parent="GNTwWP3GNRVE5K6_vVec-42">
          <mxGeometry x="1" relative="1" as="geometry">
            <mxPoint x="21" y="1" as="offset" />
          </mxGeometry>
        </mxCell>
        <mxCell id="GNTwWP3GNRVE5K6_vVec-45" value="*" style="edgeLabel;html=1;align=center;verticalAlign=middle;resizable=0;points=[];" vertex="1" connectable="0" parent="GNTwWP3GNRVE5K6_vVec-42">
          <mxGeometry x="-0.9296" y="1" relative="1" as="geometry">
            <mxPoint x="-10" y="9" as="offset" />
          </mxGeometry>
        </mxCell>
        <mxCell id="GNTwWP3GNRVE5K6_vVec-47" value="" style="endArrow=open;html=1;endSize=12;startArrow=diamondThin;startSize=14;startFill=0;edgeStyle=orthogonalEdgeStyle;rounded=0;entryX=1;entryY=0.5;entryDx=0;entryDy=0;exitX=0;exitY=0.5;exitDx=0;exitDy=0;" edge="1" parent="1" source="GNTwWP3GNRVE5K6_vVec-13" target="GNTwWP3GNRVE5K6_vVec-36">
          <mxGeometry x="0.5" y="-110" relative="1" as="geometry">
            <mxPoint x="561" as="sourcePoint" />
            <mxPoint x="500" y="261" as="targetPoint" />
            <Array as="points">
              <mxPoint x="500" y="339" />
              <mxPoint x="500" y="195" />
            </Array>
            <mxPoint as="offset" />
          </mxGeometry>
        </mxCell>
        <mxCell id="GNTwWP3GNRVE5K6_vVec-48" value="1" style="edgeLabel;resizable=0;html=1;align=right;verticalAlign=top;" connectable="0" vertex="1" parent="GNTwWP3GNRVE5K6_vVec-47">
          <mxGeometry x="1" relative="1" as="geometry">
            <mxPoint x="21" y="1" as="offset" />
          </mxGeometry>
        </mxCell>
        <mxCell id="GNTwWP3GNRVE5K6_vVec-49" value="*" style="edgeLabel;html=1;align=center;verticalAlign=middle;resizable=0;points=[];" vertex="1" connectable="0" parent="GNTwWP3GNRVE5K6_vVec-47">
          <mxGeometry x="-0.9296" y="1" relative="1" as="geometry">
            <mxPoint x="-10" y="9" as="offset" />
          </mxGeometry>
        </mxCell>
      </root>
    </mxGraphModel>
  </diagram>
</mxfile>
